<svg xmlns="http://www.w3.org/2000/svg" xmlns:xlink="http://www.w3.org/1999/xlink" width="300" zoomAndPan="magnify" viewBox="0 0 224.87999 225" height="300" preserveAspectRatio="xMidYMid meet" version="1.2"><defs><clipPath id="a338eb60f5"><path d="M 0 0.0585938 L 224.761719 0.0585938 L 224.761719 224.9375 L 0 224.9375 Z M 0 0.0585938 "/></clipPath><clipPath id="93fb412ef5"><path d="M 62.714844 46.488281 L 162.410156 46.488281 L 162.410156 185.914062 L 62.714844 185.914062 Z M 62.714844 46.488281 "/></clipPath></defs><g id="a73d643edb"><g clip-rule="nonzero" clip-path="url(#a338eb60f5)"><path style=" stroke:none;fill-rule:nonzero;fill:#ffffff;fill-opacity:1;" d="M 0 0.0585938 L 224.878906 0.0585938 L 224.878906 224.941406 L 0 224.941406 Z M 0 0.0585938 "/><path style=" stroke:none;fill-rule:nonzero;fill:#ffffff;fill-opacity:1;" d="M 0 0.0585938 L 224.878906 0.0585938 L 224.878906 224.941406 L 0 224.941406 Z M 0 0.0585938 "/></g><g clip-rule="nonzero" clip-path="url(#93fb412ef5)"><path style=" stroke:none;fill-rule:nonzero;fill:#404343;fill-opacity:1;" d="M 79.289062 46.539062 C 78.746094 46.539062 78.203125 46.566406 77.664062 46.621094 C 77.125 46.671875 76.589844 46.753906 76.054688 46.859375 C 75.523438 46.964844 75 47.097656 74.480469 47.257812 C 73.960938 47.414062 73.449219 47.597656 72.949219 47.804688 C 72.449219 48.011719 71.957031 48.246094 71.480469 48.5 C 71 48.757812 70.535156 49.035156 70.085938 49.335938 C 69.632812 49.640625 69.199219 49.960938 68.777344 50.304688 C 68.359375 50.652344 67.957031 51.015625 67.574219 51.398438 C 67.191406 51.78125 66.824219 52.183594 66.480469 52.601562 C 66.136719 53.023438 65.8125 53.457031 65.511719 53.910156 C 65.210938 54.359375 64.933594 54.824219 64.675781 55.304688 C 64.421875 55.78125 64.1875 56.273438 63.980469 56.773438 C 63.773438 57.273438 63.589844 57.785156 63.429688 58.304688 C 63.273438 58.824219 63.140625 59.347656 63.035156 59.882812 C 62.929688 60.414062 62.847656 60.949219 62.796875 61.488281 C 62.742188 62.03125 62.714844 62.570312 62.714844 63.113281 L 62.714844 155.933594 C 62.714844 156.476562 62.742188 157.019531 62.796875 157.558594 C 62.847656 158.097656 62.929688 158.636719 63.035156 159.167969 C 63.140625 159.699219 63.273438 160.226562 63.429688 160.746094 C 63.589844 161.261719 63.773438 161.773438 63.980469 162.273438 C 64.1875 162.777344 64.421875 163.265625 64.675781 163.746094 C 64.933594 164.222656 65.210938 164.6875 65.511719 165.140625 C 65.8125 165.589844 66.136719 166.027344 66.480469 166.445312 C 66.824219 166.863281 67.191406 167.265625 67.574219 167.648438 C 67.957031 168.035156 68.359375 168.398438 68.777344 168.742188 C 69.199219 169.085938 69.632812 169.410156 70.085938 169.710938 C 70.535156 170.011719 71 170.292969 71.480469 170.546875 C 71.957031 170.804688 72.449219 171.035156 72.949219 171.242188 C 73.449219 171.453125 73.960938 171.632812 74.480469 171.792969 C 75 171.949219 75.523438 172.082031 76.054688 172.1875 C 76.589844 172.292969 77.125 172.375 77.664062 172.429688 C 78.203125 172.480469 78.746094 172.507812 79.289062 172.511719 L 95.863281 172.511719 L 95.863281 182.453125 C 95.863281 183.066406 96.019531 183.632812 96.335938 184.15625 C 96.648438 184.683594 97.074219 185.089844 97.613281 185.378906 C 98.152344 185.664062 98.726562 185.796875 99.339844 185.765625 C 99.949219 185.734375 100.507812 185.550781 101.019531 185.214844 L 109.125 179.808594 L 117.230469 185.214844 C 117.738281 185.550781 118.300781 185.734375 118.910156 185.765625 C 119.519531 185.796875 120.09375 185.664062 120.632812 185.378906 C 121.171875 185.089844 121.597656 184.683594 121.914062 184.15625 C 122.226562 183.632812 122.382812 183.066406 122.382812 182.453125 L 122.382812 172.511719 L 162.164062 172.511719 L 162.164062 46.539062 Z M 79.289062 53.167969 L 82.605469 53.167969 L 82.605469 139.359375 C 80.253906 139.035156 77.933594 139.167969 75.636719 139.757812 C 73.34375 140.347656 71.242188 141.351562 69.34375 142.769531 L 69.34375 63.113281 C 69.34375 62.460938 69.410156 61.816406 69.535156 61.175781 C 69.664062 60.535156 69.855469 59.914062 70.105469 59.308594 C 70.355469 58.707031 70.660156 58.132812 71.023438 57.589844 C 71.386719 57.046875 71.796875 56.546875 72.261719 56.085938 C 72.722656 55.625 73.222656 55.210938 73.765625 54.847656 C 74.308594 54.484375 74.882812 54.179688 75.484375 53.929688 C 76.085938 53.679688 76.710938 53.488281 77.347656 53.363281 C 77.988281 53.234375 78.636719 53.167969 79.289062 53.167969 Z M 115.753906 176.257812 L 110.960938 173.066406 C 110.40625 172.695312 109.792969 172.511719 109.125 172.511719 C 108.457031 172.511719 107.84375 172.695312 107.285156 173.066406 L 102.492188 176.257812 L 102.492188 159.25 L 115.753906 159.25 Z M 122.382812 165.878906 L 122.382812 159.25 L 155.535156 159.25 L 155.535156 165.878906 Z M 155.535156 152.621094 L 79.289062 152.621094 C 78.847656 152.621094 78.425781 152.703125 78.019531 152.871094 C 77.613281 153.039062 77.253906 153.28125 76.945312 153.589844 C 76.632812 153.902344 76.394531 154.261719 76.226562 154.664062 C 76.058594 155.070312 75.972656 155.496094 75.972656 155.933594 C 75.972656 156.375 76.058594 156.796875 76.226562 157.203125 C 76.394531 157.609375 76.632812 157.96875 76.945312 158.277344 C 77.253906 158.589844 77.613281 158.828125 78.019531 158.996094 C 78.425781 159.164062 78.847656 159.25 79.289062 159.25 L 95.863281 159.25 L 95.863281 165.878906 L 79.289062 165.878906 C 78.636719 165.878906 77.988281 165.816406 77.347656 165.6875 C 76.710938 165.558594 76.085938 165.371094 75.484375 165.121094 C 74.882812 164.871094 74.308594 164.5625 73.765625 164.199219 C 73.222656 163.835938 72.722656 163.425781 72.261719 162.964844 C 71.796875 162.503906 71.386719 162 71.023438 161.457031 C 70.660156 160.914062 70.355469 160.339844 70.105469 159.738281 C 69.855469 159.136719 69.664062 158.515625 69.535156 157.875 C 69.410156 157.234375 69.34375 156.585938 69.34375 155.933594 C 69.335938 154.609375 69.589844 153.332031 70.105469 152.109375 C 70.625 150.886719 71.359375 149.816406 72.316406 148.898438 C 75.425781 145.710938 78.320312 145.988281 82.605469 145.988281 L 155.535156 145.988281 Z M 89.234375 139.359375 L 89.234375 53.167969 L 155.535156 53.167969 L 155.535156 139.359375 Z M 89.234375 139.359375 "/></g></g></svg>