<svg xmlns="http://www.w3.org/2000/svg" xmlns:xlink="http://www.w3.org/1999/xlink" width="300" zoomAndPan="magnify" viewBox="0 0 224.87999 225" height="300" preserveAspectRatio="xMidYMid meet" version="1.2"><defs><clipPath id="5dc7d14db5"><path d="M 0 0.0585938 L 224.761719 0.0585938 L 224.761719 224.9375 L 0 224.9375 Z M 0 0.0585938 "/></clipPath><clipPath id="13d6a42a70"><path d="M 48.652344 56.398438 L 176.082031 56.398438 L 176.082031 183.832031 L 48.652344 183.832031 Z M 48.652344 56.398438 "/></clipPath></defs><g id="4b1fe94add"><g clip-rule="nonzero" clip-path="url(#5dc7d14db5)"><path style=" stroke:none;fill-rule:nonzero;fill:#ffffff;fill-opacity:1;" d="M 0 0.0585938 L 224.878906 0.0585938 L 224.878906 224.941406 L 0 224.941406 Z M 0 0.0585938 "/><path style=" stroke:none;fill-rule:nonzero;fill:#ffffff;fill-opacity:1;" d="M 0 0.0585938 L 224.878906 0.0585938 L 224.878906 224.941406 L 0 224.941406 Z M 0 0.0585938 "/></g><g clip-rule="nonzero" clip-path="url(#13d6a42a70)"><path style=" stroke:none;fill-rule:nonzero;fill:#404343;fill-opacity:1;" d="M 133.363281 61.308594 C 133.363281 58.601562 136.042969 56.398438 139.355469 56.398438 C 142.664062 56.398438 145.34375 58.601562 145.34375 61.308594 L 145.34375 82.816406 C 145.34375 85.527344 142.664062 87.726562 139.355469 87.726562 C 136.042969 87.726562 133.363281 85.527344 133.363281 82.816406 Z M 117.273438 166.078125 C 116.445312 166.078125 116.445312 155.59375 117.273438 155.59375 L 133.664062 155.59375 C 134.496094 155.59375 134.496094 166.078125 133.664062 166.078125 Z M 65.105469 127.960938 C 64.273438 127.960938 64.273438 117.476562 65.105469 117.476562 L 81.496094 117.476562 C 82.324219 117.476562 82.324219 127.960938 81.496094 127.960938 Z M 91.191406 127.960938 C 90.359375 127.960938 90.359375 117.476562 91.191406 117.476562 L 107.582031 117.476562 C 108.410156 117.476562 108.410156 127.960938 107.582031 127.960938 Z M 117.273438 127.960938 C 116.445312 127.960938 116.445312 117.476562 117.273438 117.476562 L 133.664062 117.476562 C 134.496094 117.476562 134.496094 127.960938 133.664062 127.960938 Z M 143.371094 117.476562 L 159.71875 117.476562 C 160.550781 117.476562 160.550781 127.960938 159.71875 127.960938 L 143.371094 127.960938 C 142.539062 127.960938 142.539062 117.476562 143.371094 117.476562 Z M 65.105469 147.019531 C 64.273438 147.019531 64.273438 136.535156 65.105469 136.535156 L 81.496094 136.535156 C 82.324219 136.535156 82.324219 147.019531 81.496094 147.019531 Z M 91.210938 147.019531 C 90.378906 147.019531 90.378906 136.535156 91.210938 136.535156 L 107.582031 136.535156 C 108.410156 136.535156 108.410156 147.019531 107.582031 147.019531 Z M 117.296875 147.019531 C 116.464844 147.019531 116.464844 136.535156 117.296875 136.535156 L 133.664062 136.535156 C 134.496094 136.535156 134.496094 147.019531 133.664062 147.019531 Z M 143.390625 147.019531 C 142.5625 147.019531 142.5625 136.535156 143.390625 136.535156 L 159.71875 136.535156 C 160.550781 136.535156 160.550781 147.019531 159.71875 147.019531 Z M 65.125 166.078125 C 64.292969 166.078125 64.292969 155.59375 65.125 155.59375 L 81.496094 155.59375 C 82.324219 155.59375 82.324219 166.078125 81.496094 166.078125 Z M 91.210938 166.078125 C 90.378906 166.078125 90.378906 155.59375 91.210938 155.59375 L 107.582031 155.59375 C 108.410156 155.59375 108.410156 166.078125 107.582031 166.078125 Z M 79.386719 61.308594 C 79.386719 58.601562 82.066406 56.398438 85.378906 56.398438 C 88.6875 56.398438 91.367188 58.601562 91.367188 61.308594 L 91.367188 82.816406 C 91.367188 85.527344 88.6875 87.726562 85.378906 87.726562 C 82.066406 87.726562 79.386719 85.527344 79.386719 82.816406 Z M 55.296875 101.523438 L 169.550781 101.523438 L 169.550781 78.6875 C 169.539062 77.851562 169.242188 77.132812 168.65625 76.539062 C 168.066406 75.941406 167.347656 75.644531 166.507812 75.644531 L 155.566406 75.644531 C 155.128906 75.644531 154.703125 75.5625 154.296875 75.390625 C 153.890625 75.222656 153.53125 74.984375 153.21875 74.671875 C 152.90625 74.359375 152.667969 74 152.5 73.59375 C 152.332031 73.1875 152.246094 72.765625 152.246094 72.324219 C 152.246094 71.882812 152.332031 71.460938 152.5 71.050781 C 152.667969 70.644531 152.90625 70.285156 153.21875 69.972656 C 153.53125 69.664062 153.890625 69.421875 154.296875 69.253906 C 154.703125 69.085938 155.128906 69 155.566406 69 L 166.519531 69 C 167.15625 69.003906 167.785156 69.066406 168.40625 69.191406 C 169.027344 69.316406 169.632812 69.503906 170.21875 69.746094 C 170.808594 69.992188 171.363281 70.289062 171.890625 70.644531 C 172.421875 70.996094 172.910156 71.398438 173.359375 71.847656 C 173.808594 72.296875 174.207031 72.785156 174.5625 73.3125 C 174.914062 73.839844 175.214844 74.398438 175.457031 74.984375 C 175.703125 75.570312 175.886719 76.175781 176.011719 76.800781 C 176.136719 77.421875 176.203125 78.050781 176.203125 78.6875 L 176.203125 174.277344 C 176.203125 174.914062 176.136719 175.542969 176.011719 176.164062 C 175.886719 176.789062 175.703125 177.390625 175.457031 177.980469 C 175.214844 178.566406 174.914062 179.121094 174.5625 179.652344 C 174.207031 180.179688 173.808594 180.667969 173.359375 181.117188 C 172.910156 181.566406 172.421875 181.96875 171.890625 182.320312 C 171.363281 182.675781 170.808594 182.972656 170.21875 183.21875 C 169.632812 183.460938 169.027344 183.644531 168.40625 183.769531 C 167.785156 183.898438 167.15625 183.960938 166.519531 183.960938 L 58.335938 183.960938 C 57.699219 183.960938 57.070312 183.894531 56.449219 183.769531 C 55.824219 183.644531 55.21875 183.460938 54.632812 183.214844 C 54.046875 182.972656 53.488281 182.671875 52.960938 182.320312 C 52.433594 181.964844 51.941406 181.5625 51.492188 181.113281 C 51.042969 180.664062 50.644531 180.175781 50.289062 179.644531 C 49.9375 179.117188 49.636719 178.558594 49.394531 177.972656 C 49.152344 177.382812 48.964844 176.777344 48.839844 176.15625 C 48.714844 175.53125 48.652344 174.902344 48.652344 174.265625 L 48.652344 78.6875 C 48.652344 78.050781 48.71875 77.421875 48.84375 76.800781 C 48.96875 76.175781 49.152344 75.570312 49.398438 74.984375 C 49.640625 74.398438 49.941406 73.839844 50.292969 73.3125 C 50.648438 72.785156 51.046875 72.296875 51.496094 71.847656 C 51.945312 71.398438 52.433594 70.996094 52.964844 70.644531 C 53.492188 70.289062 54.046875 69.992188 54.636719 69.746094 C 55.222656 69.503906 55.828125 69.316406 56.449219 69.191406 C 57.070312 69.066406 57.703125 69.003906 58.335938 69 L 70.035156 69 C 70.476562 69 70.898438 69.085938 71.304688 69.253906 C 71.714844 69.421875 72.074219 69.664062 72.382812 69.972656 C 72.695312 70.285156 72.933594 70.644531 73.105469 71.050781 C 73.273438 71.460938 73.355469 71.882812 73.355469 72.324219 C 73.355469 72.765625 73.273438 73.1875 73.105469 73.59375 C 72.933594 74 72.695312 74.359375 72.382812 74.671875 C 72.074219 74.984375 71.714844 75.222656 71.304688 75.390625 C 70.898438 75.5625 70.476562 75.644531 70.035156 75.644531 L 58.335938 75.644531 C 57.5 75.652344 56.785156 75.953125 56.1875 76.539062 C 55.59375 77.128906 55.296875 77.847656 55.296875 78.6875 Z M 169.558594 108.175781 L 55.296875 108.175781 L 55.296875 174.265625 C 55.304688 175.101562 55.601562 175.820312 56.1875 176.414062 C 56.78125 177.011719 57.496094 177.308594 58.335938 177.308594 L 166.519531 177.308594 C 167.355469 177.300781 168.070312 177 168.667969 176.414062 C 169.261719 175.824219 169.558594 175.105469 169.558594 174.265625 Z M 101 75.644531 C 100.558594 75.644531 100.136719 75.5625 99.726562 75.390625 C 99.320312 75.222656 98.960938 74.984375 98.652344 74.671875 C 98.339844 74.359375 98.097656 74 97.929688 73.59375 C 97.761719 73.1875 97.675781 72.765625 97.675781 72.324219 C 97.675781 71.882812 97.761719 71.460938 97.929688 71.050781 C 98.097656 70.644531 98.339844 70.285156 98.652344 69.972656 C 98.960938 69.664062 99.320312 69.421875 99.726562 69.253906 C 100.136719 69.085938 100.558594 69 101 69 L 123.304688 69 C 123.746094 69 124.171875 69.085938 124.578125 69.253906 C 124.984375 69.421875 125.34375 69.664062 125.65625 69.972656 C 125.964844 70.285156 126.207031 70.644531 126.375 71.050781 C 126.542969 71.460938 126.628906 71.882812 126.628906 72.324219 C 126.628906 72.765625 126.542969 73.1875 126.375 73.59375 C 126.207031 74 125.964844 74.359375 125.65625 74.671875 C 125.34375 74.984375 124.984375 75.222656 124.578125 75.390625 C 124.171875 75.5625 123.746094 75.644531 123.304688 75.644531 Z M 101 75.644531 "/></g></g></svg>