<svg xmlns="http://www.w3.org/2000/svg" xmlns:xlink="http://www.w3.org/1999/xlink" width="300" zoomAndPan="magnify" viewBox="0 0 224.87999 225" height="300" preserveAspectRatio="xMidYMid meet" version="1.2"><defs><clipPath id="43bf8e1c9b"><path d="M 0 0.0585938 L 224.761719 0.0585938 L 224.761719 224.9375 L 0 224.9375 Z M 0 0.0585938 "/></clipPath><clipPath id="9c3f404723"><path d="M 119.441406 107.394531 L 188.480469 107.394531 L 188.480469 174.144531 L 119.441406 174.144531 Z M 119.441406 107.394531 "/></clipPath><clipPath id="43ff3a5777"><path d="M 49.851562 50.808594 L 137 50.808594 L 137 163 L 49.851562 163 Z M 49.851562 50.808594 "/></clipPath></defs><g id="e0ff549ba7"><g clip-rule="nonzero" clip-path="url(#43bf8e1c9b)"><path style=" stroke:none;fill-rule:nonzero;fill:#ffffff;fill-opacity:1;" d="M 0 0.0585938 L 224.878906 0.0585938 L 224.878906 224.941406 L 0 224.941406 Z M 0 0.0585938 "/><path style=" stroke:none;fill-rule:nonzero;fill:#ffffff;fill-opacity:1;" d="M 0 0.0585938 L 224.878906 0.0585938 L 224.878906 224.941406 L 0 224.941406 Z M 0 0.0585938 "/></g><g clip-rule="nonzero" clip-path="url(#9c3f404723)"><path style=" stroke:none;fill-rule:nonzero;fill:#404343;fill-opacity:1;" d="M 170.902344 167.03125 L 157.714844 160.304688 C 155.582031 159.214844 153.050781 159.246094 150.941406 160.386719 L 137.917969 167.441406 C 137.679688 167.570312 137.445312 167.558594 137.21875 167.398438 C 136.996094 167.242188 136.90625 167.023438 136.949219 166.753906 L 139.269531 152.128906 C 139.644531 149.761719 138.835938 147.363281 137.097656 145.710938 L 126.367188 135.507812 C 126.167969 135.320312 126.109375 135.09375 126.191406 134.832031 C 126.273438 134.570312 126.449219 134.417969 126.722656 134.375 L 141.347656 132.0625 C 143.714844 131.6875 145.746094 130.175781 146.777344 128.015625 L 146.78125 128.011719 L 153.167969 114.652344 C 153.285156 114.40625 153.484375 114.28125 153.757812 114.277344 C 153.757812 114.277344 153.761719 114.277344 153.769531 114.277344 C 154.035156 114.277344 154.230469 114.398438 154.355469 114.640625 L 161.070312 127.835938 C 162.160156 129.972656 164.226562 131.433594 166.601562 131.75 L 181.28125 133.699219 C 181.550781 133.734375 181.734375 133.882812 181.820312 134.144531 C 181.910156 134.402344 181.855469 134.628906 181.660156 134.824219 L 171.1875 145.289062 C 169.492188 146.984375 168.738281 149.402344 169.171875 151.757812 L 171.859375 166.320312 C 171.90625 166.589844 171.820312 166.808594 171.601562 166.972656 C 171.382812 167.136719 171.148438 167.15625 170.902344 167.03125 Z M 186.339844 139.503906 C 188.3125 137.53125 188.984375 134.664062 188.089844 132.019531 C 187.195312 129.375 184.917969 127.503906 182.152344 127.136719 L 167.472656 125.191406 C 167.257812 125.160156 167.070312 125.027344 166.96875 124.835938 L 160.25 111.636719 C 158.984375 109.148438 156.40625 107.621094 153.671875 107.660156 C 150.882812 107.695312 148.398438 109.28125 147.195312 111.800781 L 140.808594 125.15625 C 140.714844 125.355469 140.53125 125.492188 140.3125 125.527344 L 125.6875 127.835938 C 122.929688 128.273438 120.703125 130.199219 119.871094 132.863281 C 119.042969 135.53125 119.785156 138.378906 121.804688 140.304688 L 132.535156 150.507812 C 132.695312 150.65625 132.769531 150.875 132.734375 151.089844 L 130.414062 165.71875 C 129.976562 168.472656 131.121094 171.1875 133.398438 172.800781 C 134.660156 173.695312 136.125 174.144531 137.597656 174.144531 C 138.785156 174.144531 139.976562 173.851562 141.070312 173.261719 L 154.089844 166.207031 C 154.28125 166.105469 154.511719 166.101562 154.707031 166.199219 L 167.898438 172.925781 C 170.386719 174.195312 173.320312 173.945312 175.558594 172.277344 C 177.796875 170.609375 178.871094 167.867188 178.367188 165.121094 L 175.683594 150.558594 C 175.644531 150.34375 175.710938 150.125 175.867188 149.972656 L 186.339844 139.503906 "/></g><g clip-rule="nonzero" clip-path="url(#43ff3a5777)"><path style=" stroke:none;fill-rule:nonzero;fill:#404343;fill-opacity:1;" d="M 113.34375 100.421875 C 112.019531 101.03125 111.25 102.4375 111.449219 103.886719 C 111.652344 105.332031 112.777344 106.476562 114.21875 106.699219 C 120.203125 107.625 126.082031 110.246094 131.691406 114.492188 C 133.148438 115.597656 135.222656 115.304688 136.324219 113.851562 C 137.429688 112.394531 137.140625 110.320312 135.683594 109.214844 C 131.5625 106.097656 127.285156 103.726562 122.898438 102.136719 C 129.554688 96.570312 133.691406 88.34375 133.691406 79.90625 C 133.691406 63.875 120.851562 50.835938 105.0625 50.835938 C 89.191406 50.835938 76.28125 63.808594 76.28125 79.75 C 76.28125 88.421875 79.449219 96.019531 85.03125 101.265625 C 64.78125 107.429688 49.851562 126.640625 49.851562 148.117188 C 49.851562 154.945312 57.472656 162.398438 64.414062 162.398438 L 116.101562 162.398438 C 117.929688 162.398438 119.410156 160.898438 119.410156 159.070312 C 119.410156 157.242188 117.929688 155.742188 116.101562 155.742188 L 64.414062 155.742188 C 61.148438 155.742188 56.46875 151.269531 56.46875 148.101562 C 56.46875 127.226562 72.789062 108.8125 93.621094 106.132812 C 95.074219 105.945312 96.230469 104.839844 96.464844 103.390625 C 96.699219 101.945312 95.949219 100.523438 94.625 99.890625 C 87.28125 96.378906 82.898438 88.851562 82.898438 79.746094 C 82.898438 67.453125 92.84375 57.453125 105.0625 57.453125 C 117.199219 57.453125 127.074219 67.523438 127.074219 79.902344 C 127.074219 88.398438 121.554688 96.644531 113.34375 100.421875 "/></g></g></svg>